<svg xmlns="http://www.w3.org/2000/svg" viewBox="0 0 64 64" width="64" height="64">
  <!-- Background circle with gradient -->
  <defs>
    <linearGradient id="bgGradient" x1="0%" y1="0%" x2="100%" y2="100%">
      <stop offset="0%" style="stop-color:#4F46E5;stop-opacity:1" />
      <stop offset="100%" style="stop-color:#7C3AED;stop-opacity:1" />
    </linearGradient>
    <linearGradient id="bookGradient" x1="0%" y1="0%" x2="0%" y2="100%">
      <stop offset="0%" style="stop-color:#FFFFFF;stop-opacity:1" />
      <stop offset="100%" style="stop-color:#E0E7FF;stop-opacity:1" />
    </linearGradient>
  </defs>

  <!-- Background circle -->
  <circle cx="32" cy="32" r="30" fill="url(#bgGradient)"/>

  <!-- Book icon -->
  <g transform="translate(16, 18)">
    <!-- Left page -->
    <path d="M 2 4 Q 2 2 4 2 L 14 2 L 14 26 L 4 26 Q 2 26 2 24 Z"
          fill="url(#bookGradient)"
          stroke="#6366F1"
          stroke-width="1.5"/>

    <!-- Right page -->
    <path d="M 18 2 L 28 2 Q 30 2 30 4 L 30 24 Q 30 26 28 26 L 18 26 Z"
          fill="url(#bookGradient)"
          stroke="#6366F1"
          stroke-width="1.5"/>

    <!-- Center binding -->
    <rect x="15" y="2" width="2" height="24" fill="#4F46E5"/>

    <!-- Quiz checkmark on left page -->
    <polyline points="6,12 9,15 12,9"
              stroke="#10B981"
              stroke-width="2"
              fill="none"
              stroke-linecap="round"
              stroke-linejoin="round"/>

    <!-- Quiz question mark on right page -->
    <g transform="translate(20, 8)">
      <path d="M 3 2 Q 4 0 6 0 Q 8 0 9 2 Q 9 4 7 5 L 6 6 L 6 8"
            stroke="#3B82F6"
            stroke-width="2"
            fill="none"
            stroke-linecap="round"/>
      <circle cx="6" cy="11" r="0.8" fill="#3B82F6"/>
    </g>
  </g>
</svg>
